<svg width="29" height="29" viewBox="0 0 29 29" fill="none" xmlns="http://www.w3.org/2000/svg">
<path d="M12.054 5.80357C12.054 5.21157 12.2891 4.64382 12.7077 4.22521C13.1263 3.8066 13.6941 3.57143 14.2861 3.57143C14.8781 3.57143 15.4459 3.8066 15.8645 4.22521C16.2831 4.64382 16.5182 5.21157 16.5182 5.80357C16.5182 6.39557 16.2831 6.96333 15.8645 7.38193C15.4459 7.80054 14.8781 8.03571 14.2861 8.03571C13.6941 8.03571 13.1263 7.80054 12.7077 7.38193C12.2891 6.96333 12.054 6.39557 12.054 5.80357ZM14.2861 1.78571C13.6801 1.78572 13.082 1.9228 12.5365 2.18668C11.991 2.45056 11.5123 2.83441 11.1361 3.3095C10.76 3.78459 10.4961 4.33861 10.3644 4.93009C10.2327 5.52156 10.2364 6.13518 10.3754 6.725L7.49682 5.56429C6.79839 5.283 6.01716 5.28877 5.32297 5.58036C4.62878 5.87195 4.07775 6.42577 3.78967 7.12143C3.64708 7.46593 3.57419 7.83528 3.57521 8.20812C3.57622 8.58097 3.65112 8.94991 3.79559 9.29363C3.94005 9.63735 4.15121 9.94903 4.41685 10.2107C4.6825 10.4723 4.99736 10.6787 5.34325 10.8179L8.92896 12.2661V16.5232L5.69146 22.6125C5.51617 22.942 5.40749 23.3028 5.37163 23.6742C5.33576 24.0457 5.37342 24.4206 5.48245 24.7775C5.59147 25.1345 5.76973 25.4664 6.00705 25.7545C6.24436 26.0425 6.53609 26.281 6.86557 26.4563C7.53098 26.8103 8.30977 26.8855 9.03061 26.6653C9.75145 26.4451 10.3553 25.9476 10.7093 25.2821L14.2861 18.5536L17.8647 25.2821C18.2185 25.9476 18.8221 26.4452 19.5428 26.6655C20.2634 26.8859 21.0421 26.8109 21.7075 26.4571C22.3729 26.1034 22.8706 25.4997 23.0909 24.7791C23.3113 24.0584 23.2363 23.2797 22.8825 22.6143L19.6432 16.5214V12.2661L23.229 10.8179C23.5748 10.6787 23.8897 10.4723 24.1554 10.2107C24.421 9.94903 24.6322 9.63735 24.7766 9.29363C24.9211 8.94991 24.996 8.58097 24.997 8.20812C24.998 7.83528 24.9251 7.46593 24.7825 7.12143C24.4948 6.42545 23.9439 5.87122 23.2497 5.57928C22.5555 5.28735 21.774 5.28132 21.0754 5.5625L18.1986 6.725C18.3376 6.13503 18.3413 5.52126 18.2095 4.92965C18.0777 4.33804 17.8137 3.78392 17.4373 3.3088C17.061 2.83368 16.582 2.44986 16.0363 2.1861C15.4906 1.92233 14.8922 1.78545 14.2861 1.78571ZM5.44146 7.80179C5.54951 7.54201 5.7554 7.33515 6.01467 7.2259C6.27395 7.11664 6.56579 7.11375 6.82717 7.21786L12.9486 9.69107C13.8066 10.0376 14.7656 10.0376 15.6236 9.69107L21.745 7.21786C22.0064 7.11375 22.2983 7.11664 22.5575 7.2259C22.8168 7.33515 23.0227 7.54201 23.1307 7.80179C23.1836 7.92853 23.2108 8.06452 23.2107 8.20186C23.2105 8.3392 23.1831 8.47514 23.1299 8.60177C23.0767 8.72839 22.9989 8.84318 22.9009 8.93944C22.803 9.03571 22.6868 9.11153 22.5593 9.1625L18.9736 10.6089C18.6433 10.7425 18.3605 10.9719 18.1616 11.2675C17.9627 11.5632 17.8568 11.9115 17.8575 12.2679V16.5232C17.8573 16.8159 17.9291 17.1041 18.0665 17.3625L21.3057 23.4536C21.4229 23.6993 21.4407 23.9807 21.3555 24.2393C21.2703 24.4978 21.0886 24.7135 20.8484 24.8415C20.6081 24.9694 20.3277 24.9998 20.0657 24.9262C19.8036 24.8526 19.58 24.6808 19.4415 24.4464L15.8629 17.7143C15.7108 17.4281 15.4837 17.1888 15.2059 17.0218C14.9281 16.8549 14.6102 16.7667 14.2861 16.7667C13.962 16.7667 13.6441 16.8549 13.3663 17.0218C13.0885 17.1888 12.8614 17.4281 12.7093 17.7143L9.13253 24.4411C9.06746 24.5635 8.97891 24.6719 8.87194 24.7601C8.76498 24.8483 8.64169 24.9145 8.50912 24.9551C8.37654 24.9956 8.23729 25.0096 8.09929 24.9964C7.96129 24.9831 7.82726 24.9428 7.70485 24.8777C7.58244 24.8126 7.47405 24.7241 7.38586 24.6171C7.29767 24.5101 7.23141 24.3868 7.19087 24.2543C7.15032 24.1217 7.13629 23.9824 7.14957 23.8444C7.16284 23.7064 7.20317 23.5724 7.26825 23.45L10.5057 17.3607C10.6428 17.1028 10.7146 16.8153 10.7147 16.5232V12.2661C10.7147 11.9104 10.6084 11.5628 10.4096 11.2679C10.2107 10.9729 9.92834 10.7441 9.5986 10.6107L6.01289 9.16071C5.88536 9.10975 5.76924 9.03392 5.67128 8.93766C5.57333 8.84139 5.4955 8.72661 5.44232 8.59998C5.38915 8.47335 5.36168 8.33742 5.36154 8.20008C5.36139 8.06274 5.38856 7.92853 5.44146 7.80179Z" fill="#A729F5"/>
</svg>
