<svg width="29" height="29" viewBox="0 0 29 29" fill="none" xmlns="http://www.w3.org/2000/svg">
<path d="M17.5049 5.43393C17.6121 5.48153 17.7089 5.54977 17.7897 5.63476C17.8705 5.71975 17.9337 5.81982 17.9758 5.92926C18.018 6.03871 18.0381 6.15538 18.0351 6.27261C18.0322 6.38984 18.0061 6.50534 17.9585 6.6125L10.8156 22.6839C10.7195 22.9004 10.5413 23.0697 10.3203 23.1548C10.0993 23.2399 9.8535 23.2336 9.63707 23.1375C9.42063 23.0414 9.25125 22.8632 9.16619 22.6422C9.08113 22.4211 9.08736 22.1754 9.1835 21.9589L16.3264 5.8875C16.3739 5.78033 16.4422 5.68358 16.5272 5.60277C16.6122 5.52197 16.7122 5.45871 16.8217 5.41659C16.9311 5.37447 17.0478 5.35432 17.165 5.3573C17.2823 5.36027 17.3978 5.38631 17.5049 5.43393ZM7.73707 9.6C7.82454 9.67809 7.89578 9.77264 7.94671 9.87826C7.99764 9.98388 8.02727 10.0985 8.0339 10.2156C8.04053 10.3326 8.02404 10.4499 7.98536 10.5606C7.94669 10.6713 7.88659 10.7732 7.8085 10.8607L4.76743 14.2857L7.81207 17.7107C7.88992 17.7984 7.94974 17.9006 7.98811 18.0114C8.02647 18.1222 8.04264 18.2395 8.03567 18.3566C8.02871 18.4737 7.99875 18.5882 7.94752 18.6937C7.89628 18.7992 7.82477 18.8936 7.73707 18.9714C7.64936 19.0493 7.54718 19.1091 7.43636 19.1475C7.32554 19.1858 7.20825 19.202 7.09118 19.195C6.97411 19.1881 6.85956 19.1581 6.75407 19.1069C6.64858 19.0556 6.55421 18.9841 6.47636 18.8964L2.90493 14.8786C2.75983 14.7152 2.67969 14.5042 2.67969 14.2857C2.67969 14.0672 2.75983 13.8563 2.90493 13.6929L6.47636 9.675C6.5542 9.58728 6.64856 9.51575 6.75405 9.4645C6.85954 9.41325 6.9741 9.38329 7.09117 9.37633C7.20825 9.36936 7.32555 9.38553 7.43637 9.42391C7.5472 9.46229 7.64938 9.52213 7.73707 9.6ZM20.8353 9.6C20.923 9.52213 21.0252 9.46229 21.136 9.42391C21.2468 9.38553 21.3641 9.36936 21.4812 9.37633C21.5983 9.38329 21.7128 9.41325 21.8183 9.4645C21.9238 9.51575 22.0182 9.58728 22.096 9.675L25.6674 13.6929C25.8125 13.8563 25.8927 14.0672 25.8927 14.2857C25.8927 14.5042 25.8125 14.7152 25.6674 14.8786L22.096 18.8964C22.0181 18.9841 21.9238 19.0556 21.8183 19.1069C21.7128 19.1581 21.5982 19.1881 21.4812 19.195C21.3641 19.202 21.2468 19.1858 21.136 19.1475C21.0252 19.1091 20.923 19.0493 20.8353 18.9714C20.7476 18.8936 20.6761 18.7992 20.6248 18.6937C20.5736 18.5882 20.5436 18.4737 20.5367 18.3566C20.5297 18.2395 20.5459 18.1222 20.5842 18.0114C20.6226 17.9006 20.6824 17.7984 20.7603 17.7107L23.8049 14.2857L20.7603 10.8607C20.6824 10.773 20.6226 10.6708 20.5842 10.56C20.5458 10.4492 20.5296 10.3319 20.5366 10.2148C20.5436 10.0977 20.5735 9.98319 20.6248 9.8777C20.676 9.77221 20.7476 9.67785 20.8353 9.6Z" fill="#FF7E35"/>
</svg>
