<svg width="29" height="29" viewBox="0 0 29 29" fill="none" xmlns="http://www.w3.org/2000/svg">
<path d="M15.1784 13.3929C15.1784 12.6825 15.4606 12.0012 15.963 11.4988C16.4653 10.9965 17.1466 10.7143 17.857 10.7143H20.5356C20.7724 10.7143 20.9995 10.8084 21.1669 10.9758C21.3344 11.1432 21.4284 11.3703 21.4284 11.6071C21.4284 11.8439 21.3344 12.071 21.1669 12.2385C20.9995 12.4059 20.7724 12.5 20.5356 12.5H17.857C17.6202 12.5 17.3931 12.5941 17.2257 12.7615C17.0582 12.929 16.9641 13.1561 16.9641 13.3929V14.2857C16.9641 14.5225 17.0582 14.7496 17.2257 14.9171C17.3931 15.0845 17.6202 15.1786 17.857 15.1786H18.7499C19.4603 15.1786 20.1416 15.4608 20.6439 15.9631C21.1462 16.4654 21.4284 17.1467 21.4284 17.8571V18.75C21.4284 19.4604 21.1462 20.1417 20.6439 20.644C20.1416 21.1464 19.4603 21.4286 18.7499 21.4286H16.0713C15.8345 21.4286 15.6074 21.3345 15.4399 21.1671C15.2725 20.9996 15.1784 20.7725 15.1784 20.5357C15.1784 20.2989 15.2725 20.0718 15.4399 19.9044C15.6074 19.7369 15.8345 19.6429 16.0713 19.6429H18.7499C18.9867 19.6429 19.2138 19.5488 19.3812 19.3813C19.5486 19.2139 19.6427 18.9868 19.6427 18.75V17.8571C19.6427 17.6203 19.5486 17.3932 19.3812 17.2258C19.2138 17.0584 18.9867 16.9643 18.7499 16.9643H17.857C17.1466 16.9643 16.4653 16.6821 15.963 16.1798C15.4606 15.6774 15.1784 14.9961 15.1784 14.2857V13.3929ZM14.2856 11.6071C14.2856 11.3703 14.1915 11.1432 14.0241 10.9758C13.8566 10.8084 13.6295 10.7143 13.3927 10.7143C13.1559 10.7143 12.9288 10.8084 12.7614 10.9758C12.5939 11.1432 12.4999 11.3703 12.4999 11.6071V18.75C12.4999 18.9868 12.4058 19.2139 12.2383 19.3813C12.0709 19.5488 11.8438 19.6429 11.607 19.6429H9.82129C9.58449 19.6429 9.35739 19.7369 9.18994 19.9044C9.0225 20.0718 8.92843 20.2989 8.92843 20.5357C8.92843 20.7725 9.0225 20.9996 9.18994 21.1671C9.35739 21.3345 9.58449 21.4286 9.82129 21.4286H11.607C12.3174 21.4286 12.9987 21.1464 13.501 20.644C14.0034 20.1417 14.2856 19.4604 14.2856 18.75V11.6071ZM3.57129 8.03572C3.57129 6.85171 4.04163 5.71621 4.87885 4.87899C5.71606 4.04177 6.85157 3.57143 8.03557 3.57143H20.5356C21.7196 3.57143 22.8551 4.04177 23.6923 4.87899C24.5295 5.71621 24.9999 6.85171 24.9999 8.03572V20.5357C24.9999 21.7197 24.5295 22.8552 23.6923 23.6924C22.8551 24.5297 21.7196 25 20.5356 25H8.03557C6.85157 25 5.71606 24.5297 4.87885 23.6924C4.04163 22.8552 3.57129 21.7197 3.57129 20.5357V8.03572ZM8.03557 5.35714C7.32517 5.35714 6.64387 5.63935 6.14154 6.14168C5.63921 6.64401 5.357 7.32531 5.357 8.03572V20.5357C5.357 21.2461 5.63921 21.9274 6.14154 22.4298C6.64387 22.9321 7.32517 23.2143 8.03557 23.2143H20.5356C21.246 23.2143 21.9273 22.9321 22.4296 22.4298C22.9319 21.9274 23.2141 21.2461 23.2141 20.5357V8.03572C23.2141 7.32531 22.9319 6.64401 22.4296 6.14168C21.9273 5.63935 21.246 5.35714 20.5356 5.35714H8.03557Z" fill="#306AFF"/>
</svg>
